<?xml version="1.0" standalone="no"?>
<!DOCTYPE svg PUBLIC "-//W3C//DTD SVG 20010904//EN"
 "http://www.w3.org/TR/2001/REC-SVG-20010904/DTD/svg10.dtd">
<svg version="1.0" xmlns="http://www.w3.org/2000/svg"
 width="700.000000pt" height="700.000000pt" viewBox="0 0 700.000000 700.000000"
 preserveAspectRatio="xMidYMid meet">
<metadata>
Created by potrace 1.14, written by Peter Selinger 2001-2017
</metadata>
<g transform="translate(0.000000,700.000000) scale(0.100000,-0.100000)"
fill="#000000" stroke="none">
<path d="M1056 6915 c-197 -142 -322 -249 -527 -454 -194 -195 -334 -359 -462
-542 l-67 -97 0 -2322 0 -2322 67 -97 c251 -360 656 -764 1019 -1017 l92 -64
2322 0 2322 0 97 67 c358 250 764 656 1014 1014 l67 97 0 2322 0 2322 -67 97
c-250 358 -656 764 -1014 1014 l-97 67 -2323 0 -2324 0 -119 -85z m1411 -561
c64 -31 109 -84 155 -184 19 -41 76 -153 125 -248 l90 -172 93 140 c103 155
131 184 191 200 48 13 79 5 143 -39 40 -28 56 -55 211 -358 93 -180 200 -389
240 -463 39 -74 105 -199 145 -277 41 -79 77 -143 80 -143 3 1 30 37 60 82
171 254 355 492 414 536 82 61 208 -34 430 -324 53 -69 108 -143 122 -164 l26
-39 -20 -28 c-11 -15 -46 -43 -79 -62 -103 -61 -151 -102 -168 -143 -33 -84
-10 -157 65 -199 66 -37 55 -51 -92 -109 -134 -54 -179 -104 -180 -199 0 -63
8 -87 43 -132 35 -44 37 -67 7 -73 -13 -3 -194 -10 -403 -17 -209 -6 -443 -14
-519 -18 l-140 -6 3 -65 c7 -207 -118 -361 -571 -702 -365 -273 -492 -386
-595 -525 -104 -140 -143 -256 -143 -423 0 -196 58 -381 163 -520 60 -79 200
-223 285 -291 l73 -59 -759 0 -759 0 -46 58 c-156 199 -222 460 -188 749 31
263 123 442 325 631 191 177 438 304 1091 562 257 101 375 165 474 256 90 84
123 146 129 244 7 128 -31 174 -178 214 -226 61 -338 54 -720 -43 -191 -48
-312 -73 -395 -82 -147 -15 -465 -6 -615 16 -112 17 -419 92 -434 105 -10 10
101 225 213 414 208 351 444 812 626 1226 158 360 178 400 230 458 72 80 141
100 235 67 23 -8 57 -15 74 -15 33 0 57 24 105 102 31 53 71 77 138 87 78 12
138 5 200 -25z m2991 -1190 c133 -225 215 -317 375 -424 68 -45 101 -74 113
-98 19 -41 12 -91 -16 -117 -25 -23 -87 -44 -130 -45 -55 -1 -67 -13 -38 -40
37 -35 154 -100 247 -137 99 -40 127 -62 143 -115 9 -31 8 -45 -6 -82 -22 -56
-50 -75 -132 -85 -35 -4 -69 -12 -75 -18 -17 -17 46 -54 227 -133 191 -84 219
-108 216 -177 -4 -89 -69 -139 -196 -149 -137 -12 -138 -41 -1 -105 44 -20
130 -53 191 -73 119 -39 147 -59 169 -121 14 -41 7 -91 -18 -129 -36 -54 -200
-102 -322 -93 -39 3 -78 1 -87 -4 -9 -5 -24 -30 -34 -57 -28 -73 -43 -91 -88
-103 -66 -18 -147 -4 -240 41 -92 45 -113 48 -147 22 -13 -10 -31 -21 -41 -25
-14 -5 -15 -12 -7 -49 5 -24 16 -60 24 -81 43 -109 41 -178 -4 -202 -68 -34
-310 -27 -352 11 -28 25 -24 96 11 197 35 101 36 115 13 124 -10 4 -29 15 -42
25 -34 26 -48 23 -148 -24 -82 -40 -94 -43 -170 -43 -72 0 -85 3 -107 24 -14
13 -33 46 -41 72 -23 67 -43 79 -120 72 -114 -11 -258 28 -317 84 -48 46 -49
136 -2 192 19 23 51 38 147 69 68 22 157 56 199 76 120 57 115 89 -13 100
-134 11 -199 61 -199 153 0 65 31 93 163 148 203 86 303 142 284 161 -3 3 -35
9 -72 14 -100 12 -146 52 -147 127 -1 69 24 101 110 139 161 72 306 157 299
177 -2 7 -17 13 -33 14 -128 11 -174 42 -174 118 0 57 20 79 139 159 139 93
262 231 339 382 44 87 71 94 110 28z"/>
<path d="M5183 4716 c-21 -18 -51 -40 -68 -49 -16 -8 -41 -27 -54 -41 -23 -25
-24 -27 -8 -43 15 -15 23 -16 62 -5 35 9 55 9 90 0 39 -11 46 -10 65 7 24 22
26 63 4 72 -12 4 -14 14 -10 36 6 32 -7 57 -30 57 -8 0 -31 -15 -51 -34z"/>
<path d="M5002 4241 c-128 -66 -135 -71 -126 -94 10 -26 50 -31 122 -17 l64
13 22 -28 c20 -24 27 -27 62 -21 51 8 54 8 86 0 45 -10 77 3 95 41 21 43 5 69
-37 60 -18 -4 -31 -1 -40 10 -7 8 -27 15 -46 15 -31 0 -33 2 -36 38 -3 31 -7
37 -28 39 -14 1 -75 -24 -138 -56z"/>
<path d="M4906 3834 c-40 -27 -104 -58 -150 -73 -78 -25 -81 -27 -81 -56 l0
-30 112 0 c104 0 113 -2 137 -24 l27 -25 55 19 c53 18 58 18 86 2 81 -47 196
21 158 93 -9 17 -17 19 -49 14 -34 -5 -40 -3 -46 15 -3 11 -12 21 -18 22 -7 0
-32 1 -57 2 -42 2 -45 4 -48 32 -8 69 -34 70 -126 9z"/>
<path d="M4820 3373 c-36 -14 -105 -40 -155 -57 -85 -31 -90 -34 -93 -63 -4
-37 10 -47 77 -58 29 -5 73 -1 132 11 109 22 125 16 148 -51 22 -69 52 -79
123 -43 40 20 56 24 75 17 28 -11 67 -3 83 17 16 18 15 101 -1 120 -9 12 -23
14 -50 10 -31 -5 -43 -1 -68 20 -27 23 -35 25 -62 15 -42 -15 -69 1 -69 39 0
31 -23 50 -57 50 -10 -1 -47 -13 -83 -27z"/>
</g>
</svg>
